<svg width="42" height="31" viewBox="0 0 42 31" fill="none" xmlns="http://www.w3.org/2000/svg">
<path d="M14.4608 5.81641C15.3857 5.81641 16.2403 5.88641 17.0243 6.09644C17.8084 6.23646 18.4515 6.52524 19.0241 6.87528C19.5967 7.22532 20.0195 7.72413 20.3103 8.36295C20.5922 9.00178 20.7419 9.78062 20.7419 10.6295C20.7419 11.6183 20.5305 12.4672 20.0284 13.106C19.5967 13.7448 18.8919 14.3136 18.0286 14.7337C19.2443 15.0837 20.1693 15.7226 20.7331 16.5714C21.2969 17.4203 21.6581 18.4791 21.6581 19.6868C21.6581 20.6756 21.4467 21.5245 21.0855 22.2333C20.7331 22.9422 20.1605 23.581 19.5174 24.001C18.8743 24.4298 18.0903 24.7799 17.2357 24.9899C16.3812 25.1999 15.5267 25.3399 14.6722 25.3399L5.12268 25.3574V5.81641H14.4608ZM13.8881 13.7448C14.6722 13.7448 15.3153 13.5348 15.8086 13.176C16.3019 12.8172 16.5222 12.1871 16.5222 11.4083C16.5222 10.9795 16.4517 10.5595 16.3107 10.2794C16.1698 9.99939 15.9584 9.78062 15.6677 9.57059C15.3857 9.43058 15.095 9.29056 14.7427 9.22055C14.3903 9.15055 14.0291 9.15054 13.6062 9.15054H9.47457V13.7536C9.47457 13.7448 13.8881 13.7448 13.8881 13.7448ZM14.0996 22.1021C14.5312 22.1021 14.9541 22.032 15.3153 21.962C15.6677 21.892 16.0288 21.752 16.3107 21.5332C16.5926 21.3145 16.8129 21.1044 17.0243 20.7544C17.1653 20.4044 17.3062 19.9756 17.3062 19.4768C17.3062 18.4879 17.0243 17.7791 16.4517 17.2802C15.8791 16.8514 15.095 16.6414 14.17 16.6414H9.47457V22.0933H14.0996V22.1021Z" fill="white"/>
<path d="M27.4416 21.5421C28.0143 22.1109 28.8688 22.3909 30.0052 22.3909C30.7892 22.3909 31.5028 22.1809 32.0754 21.8221C32.6481 21.3933 33.0004 20.9732 33.1414 20.5444H36.6299C36.0573 22.2421 35.2028 23.4498 34.0664 24.2286C32.93 24.9375 31.5733 25.3575 29.9347 25.3575C28.7983 25.3575 27.794 25.1475 26.869 24.7887C25.944 24.4386 25.2305 23.9398 24.5874 23.231C23.9443 22.5922 23.4509 21.8133 23.1602 20.8945C22.8078 19.9756 22.6581 18.9868 22.6581 17.8491C22.6581 16.7903 22.799 15.7926 23.1602 14.8738C23.5214 13.9549 24.0147 13.1761 24.6578 12.4672C25.3009 11.8284 26.085 11.2596 26.9395 10.9096C27.8645 10.5595 28.7895 10.3407 29.9347 10.3407C31.1504 10.3407 32.2164 10.5508 33.1414 11.0496C34.0664 11.5484 34.78 12.1085 35.3526 12.9573C35.9252 13.7361 36.348 14.655 36.6388 15.6439C36.7797 16.6327 36.8502 17.6304 36.7797 18.7592H26.4462C26.4462 19.9144 26.869 20.9732 27.4416 21.5421ZM31.9345 14.1037C31.4323 13.6049 30.6483 13.3248 29.7233 13.3248C29.0802 13.3248 28.5869 13.4649 28.1552 13.6749C27.7235 13.8849 27.4416 14.1737 27.1597 14.4537C26.8778 14.7338 26.7281 15.0926 26.6576 15.4426C26.5871 15.7926 26.5166 16.0814 26.5166 16.3615H32.93C32.789 15.3113 32.4278 14.6025 31.9345 14.1037ZM25.6621 6.67407H33.6435V8.58179H25.6621V6.67407Z" fill="white"/>
</svg>
