<svg width="34" height="35" viewBox="0 0 34 35" fill="none" xmlns="http://www.w3.org/2000/svg">
<path d="M17.3423 17.5867C17.3423 16.5258 17.7637 15.5084 18.5139 14.7583C19.264 14.0081 20.2814 13.5867 21.3423 13.5867C22.4032 13.5867 23.4206 14.0081 24.1708 14.7583C24.9209 15.5084 25.3424 16.5258 25.3424 17.5867C25.3424 18.6476 24.9209 19.665 24.1708 20.4152C23.4206 21.1653 22.4032 21.5868 21.3423 21.5868C20.2814 21.5868 19.264 21.1653 18.5139 20.4152C17.7637 19.665 17.3423 18.6476 17.3423 17.5867V17.5867Z" stroke="white" stroke-width="1.12001"/>
<path d="M9.34229 25.587C9.34229 24.5261 9.76372 23.5087 10.5139 22.7585C11.264 22.0083 12.2814 21.5869 13.3423 21.5869H17.3424V25.587C17.3424 26.6478 16.9209 27.6653 16.1708 28.4154C15.4206 29.1656 14.4032 29.587 13.3423 29.587C12.2814 29.587 11.264 29.1656 10.5139 28.4154C9.76372 27.6653 9.34229 26.6478 9.34229 25.587Z" stroke="white" stroke-width="1.12001"/>
<path d="M17.3423 5.58691V13.587H21.3423C22.4032 13.587 23.4206 13.1656 24.1708 12.4154C24.9209 11.6653 25.3424 10.6478 25.3424 9.58696C25.3424 8.52608 24.9209 7.50865 24.1708 6.7585C23.4206 6.00835 22.4032 5.58691 21.3423 5.58691H17.3423Z" stroke="white" stroke-width="1.12001"/>
<path d="M9.34229 9.58696C9.34229 10.6478 9.76372 11.6653 10.5139 12.4154C11.264 13.1656 12.2814 13.587 13.3423 13.587H17.3424V5.58691H13.3423C12.2814 5.58691 11.264 6.00835 10.5139 6.7585C9.76372 7.50865 9.34229 8.52608 9.34229 9.58696Z" stroke="white" stroke-width="1.12001"/>
<path d="M9.34229 17.5867C9.34229 18.6476 9.76372 19.665 10.5139 20.4152C11.264 21.1653 12.2814 21.5868 13.3423 21.5868H17.3424V13.5867H13.3423C12.2814 13.5867 11.264 14.0081 10.5139 14.7583C9.76372 15.5084 9.34229 16.5258 9.34229 17.5867Z" stroke="white" stroke-width="1.12001"/>
</svg>
