<svg width="36" height="34" viewBox="0 0 36 34" fill="none" xmlns="http://www.w3.org/2000/svg">
<path d="M28.878 6.74813V26.426C28.878 26.8759 28.6992 27.3074 28.3811 27.6255C28.063 27.9436 27.6315 28.1224 27.1816 28.1224H7.50374C7.05384 28.1224 6.62236 27.9436 6.30423 27.6255C5.9861 27.3074 5.80737 26.8759 5.80737 26.426V6.74813C5.80737 6.29822 5.9861 5.86674 6.30423 5.54861C6.62236 5.23048 7.05384 5.05176 7.50374 5.05176H27.1816C27.6315 5.05176 28.063 5.23048 28.3811 5.54861C28.6992 5.86674 28.878 6.29822 28.878 6.74813ZM12.5928 13.8729H9.20011V24.7296H12.5928V13.8729ZM12.8982 10.1409C12.9 9.88423 12.8512 9.62976 12.7546 9.39197C12.6581 9.15419 12.5156 8.93776 12.3354 8.75503C12.1552 8.57231 11.9408 8.42686 11.7044 8.32701C11.4679 8.22716 11.2142 8.17485 10.9575 8.17307H10.8965C10.3746 8.17307 9.87407 8.38039 9.50504 8.74943C9.13601 9.11846 8.92869 9.61897 8.92869 10.1409C8.92869 10.6627 9.13601 11.1633 9.50504 11.5323C9.87407 11.9013 10.3746 12.1086 10.8965 12.1086C11.1531 12.115 11.4085 12.0706 11.648 11.9782C11.8875 11.8858 12.1065 11.7471 12.2924 11.57C12.4783 11.393 12.6275 11.181 12.7314 10.9463C12.8354 10.7115 12.892 10.4586 12.8982 10.2019V10.1409ZM25.4852 18.1341C25.4852 14.8703 23.4089 13.6014 21.3461 13.6014C20.6707 13.5676 19.9982 13.7115 19.3958 14.0187C18.7933 14.3258 18.282 14.7856 17.9127 15.3521H17.8177V13.8729H14.6285V24.7296H18.0212V18.9552C17.9722 18.3638 18.1585 17.7769 18.5396 17.3221C18.9208 16.8672 19.466 16.5812 20.0569 16.526H20.1858C21.2647 16.526 22.0654 17.2045 22.0654 18.9145V24.7296H25.4581L25.4852 18.1341Z" fill="white"/>
</svg>
